# xmcd
#
# Track frame offsets:
#	150
#	16230
#	33525
#	50940
#	71955
#	89520
#	106170
#	122670
#	141645
#	159195
#	177120
#	197070
#	213120
#	229802
#	245162
#
# Disc length: 3507 seconds
#
# Revision: 0
# Processed by: cddbd v1.5.2PL0 Copyright (c) Steve Scherf et al.
# Submitted via: EZCDAudioConverter 4.0.5.1
#
DISCID=db0db10f
DTITLE=Claude Barzotti - C'est mon histoire
DYEAR=2012
DGENRE=Chanson francaise
TTITLE0=Le Rital
TTITLE1=Madame
TTITLE2=Prends bien soin d'elle
TTITLE3=C'est moi qui pars
TTITLE4=J'ai les bleus
TTITLE5=Je ne t'ecrirai plus
TTITLE6=La maison d'Irlande
TTITLE7=Le chant des solitaires
TTITLE8=Beau, j's'rai jamais beau
TTITLE9=T'amo e t'amoro
TTITLE10=Aime-moi
TTITLE11=Chiara (Inedit)
TTITLE12=Je ne reviendrai plus (Inedit)
TTITLE13=La femme de ma vie (Inedit)
TTITLE14=Un nuovo amore e nato (Inedit)
EXTD=
EXTT0=
EXTT1=
EXTT2=
EXTT3=
EXTT4=
EXTT5=
EXTT6=
EXTT7=
EXTT8=
EXTT9=
EXTT10=
EXTT11=
EXTT12=
EXTT13=
EXTT14=
PLAYORDER=
